# xmcd CD database file
# Copyright (C) 1993-1998 Ti Kan
# 
# Track frame offsets:
#     182
#     17967
#     41852
#     55210
#     70630
#     91895
#     106880
#     124180
#     140082
#     162547
# 
# Disc length: 2341 seconds
# 
# Revision: 1
# Processed by: cddbd v1.4b41PL1 Copyright (c) Steve Scherf et al.
# Submitted via: DiscPlay 4.0.4
# 
DISCID=8d09230a
DTITLE=Raymond May - Unadulterated Addiction
DYEAR=1900
DGENRE=
TTITLE0=Romantic Guy
TTITLE1=True Life
TTITLE2=New Emotion
TTITLE3=You Turn Me On
TTITLE4=True Pretender
TTITLE5=Living In Exile
TTITLE6=Turn Your Love Light On
TTITLE7=Tiger And The Butterfly
TTITLE8=Yellow Ribbons
TTITLE9=Ride'Em High
EXTD=
EXTT0=
EXTT1=
EXTT2=
EXTT3=
EXTT4=
EXTT5=
EXTT6=
EXTT7=
EXTT8=
EXTT9=
PLAYORDER=
